<svg width="16" height="16" viewBox="0 0 16 16" fill="none" xmlns="http://www.w3.org/2000/svg">
<g clip-path="url(#clip0_11_527)">
<path d="M8.04223 1.28901C11.5769 1.28901 14.4766 4.00156 14.7707 7.45874H10.5666C10.3163 6.26985 9.26217 5.37505 7.99844 5.37505C6.7347 5.37505 5.68055 6.26985 5.4303 7.45874H1.31378C1.61095 4.00156 4.51066 1.28901 8.04223 1.28901ZM9.44673 7.45874C9.50929 7.62769 9.5437 7.80915 9.5437 8H9.54682C9.54682 8.19085 9.51241 8.37231 9.44985 8.54126C9.23089 9.12945 8.66471 9.54556 8.00156 9.54556C7.33842 9.54556 6.77224 9.12632 6.55327 8.54126C6.49071 8.37231 6.4563 8.19085 6.4563 8H6.45318C6.45318 7.80915 6.48759 7.62769 6.55015 7.45874C6.76911 6.87055 7.33529 6.45444 7.99844 6.45444C8.66158 6.45444 9.22776 6.87368 9.44673 7.45874ZM7.95464 14.7141C4.41994 14.7141 1.52023 12.0016 1.2262 8.54439H5.4303C5.68055 9.73328 6.7347 10.6281 7.99844 10.6281C9.26217 10.6281 10.3163 9.73328 10.5666 8.54439H14.6862C14.3891 11.9984 11.4893 14.7141 7.95464 14.7141ZM7.99844 0C3.58162 0 0 3.58232 0 8C0 12.4177 3.58162 16 7.99844 16C12.4152 16 16 12.4208 16 8C16 3.57919 12.4184 0 7.99844 0Z" fill="#545454"/>
</g>
<defs>
<clipPath id="clip0_11_527">
<rect width="16" height="16" fill="white"/>
</clipPath>
</defs>
</svg>
