<svg width="16" height="16" viewBox="0 0 16 16" fill="none" xmlns="http://www.w3.org/2000/svg">
<g clip-path="url(#clip0_11_536)">
<path d="M7.99843 10.625C6.7347 10.625 5.68055 9.73015 5.4303 8.54126H1.2262C1.52336 11.9984 4.42307 14.711 7.95464 14.711C11.4862 14.711 14.389 11.9984 14.6831 8.54126H10.5666C10.3163 9.73328 9.26217 10.625 7.99843 10.625Z" fill="white"/>
<path d="M9.54683 8C9.5437 8 9.5437 8 9.54683 8C9.5437 7.80915 9.5093 7.62769 9.44673 7.45874C9.22777 6.87055 8.66159 6.45444 7.99845 6.45444C7.3353 6.45444 6.76912 6.87368 6.55016 7.45874C6.48759 7.62769 6.45319 7.80915 6.45319 8H6.45631C6.45631 8.19085 6.49072 8.37231 6.55328 8.54126C6.77225 9.12945 7.33843 9.54556 8.00157 9.54556C8.66472 9.54556 9.2309 9.12632 9.44986 8.54126C9.51242 8.37544 9.54683 8.19085 9.54683 8Z" fill="white"/>
<path d="M8.00156 5.37817C9.2653 5.37817 10.3195 6.27297 10.5697 7.46186H14.7738C14.4766 4.00155 11.5769 1.289 8.04223 1.289C4.50753 1.289 1.61095 4.00156 1.31378 7.45873H5.43343C5.68367 6.26984 6.73783 5.37817 8.00156 5.37817Z" fill="#D50C0C"/>
<path d="M8.04223 1.28901C11.5769 1.28901 14.4766 4.00156 14.7707 7.45874H10.5666C10.3163 6.26985 9.26217 5.37505 7.99844 5.37505C6.7347 5.37505 5.68055 6.26985 5.4303 7.45874H1.31378C1.61095 4.00156 4.51066 1.28901 8.04223 1.28901ZM9.44673 7.45874C9.50929 7.62769 9.5437 7.80915 9.5437 8H9.54682C9.54682 8.19085 9.51241 8.37231 9.44985 8.54126C9.23089 9.12945 8.66471 9.54556 8.00156 9.54556C7.33842 9.54556 6.77224 9.12632 6.55327 8.54126C6.49071 8.37231 6.4563 8.19085 6.4563 8H6.45318C6.45318 7.80915 6.48759 7.62769 6.55015 7.45874C6.76911 6.87055 7.33529 6.45444 7.99844 6.45444C8.66158 6.45444 9.22776 6.87368 9.44673 7.45874ZM7.95464 14.7141C4.41994 14.7141 1.52023 12.0016 1.2262 8.54439H5.4303C5.68055 9.73328 6.7347 10.6281 7.99844 10.6281C9.26217 10.6281 10.3163 9.73328 10.5666 8.54439H14.6862C14.3891 11.9984 11.4893 14.7141 7.95464 14.7141ZM7.99844 0C3.58162 0 0 3.58232 0 8C0 12.4177 3.58162 16 7.99844 16C12.4152 16 16 12.4208 16 8C16 3.57919 12.4184 0 7.99844 0Z" fill="black"/>
</g>
<defs>
<clipPath id="clip0_11_536">
<rect width="16" height="16" fill="white"/>
</clipPath>
</defs>
</svg>
